<svg xmlns="http://www.w3.org/2000/svg" viewBox="0 0 512 512">
  <!-- Background: FMCG primary blue gradient -->
  <defs>
    <linearGradient id="bg" x1="0%" y1="0%" x2="100%" y2="100%">
      <stop offset="0%"   stop-color="#1E3A8A"/>
      <stop offset="100%" stop-color="#2563EB"/>
    </linearGradient>
  </defs>

  <!-- Rounded square background -->
  <rect width="512" height="512" rx="112" fill="url(#bg)"/>

  <!-- Distribution truck body -->
  <rect x="80" y="220" width="240" height="130" rx="16" fill="white" opacity="0.95"/>
  <!-- Truck cab -->
  <rect x="320" y="260" width="110" height="90" rx="14" fill="white" opacity="0.95"/>
  <!-- Windshield -->
  <rect x="330" y="272" width="88" height="52" rx="8" fill="#2563EB" opacity="0.5"/>
  <!-- Truck wheels -->
  <circle cx="150" cy="365" r="32" fill="#1E3A8A"/>
  <circle cx="150" cy="365" r="16" fill="white" opacity="0.3"/>
  <circle cx="310" cy="365" r="32" fill="#1E3A8A"/>
  <circle cx="310" cy="365" r="16" fill="white" opacity="0.3"/>
  <circle cx="390" cy="365" r="32" fill="#1E3A8A"/>
  <circle cx="390" cy="365" r="16" fill="white" opacity="0.3"/>

  <!-- Route path / road lines (dashed) -->
  <line x1="80" y1="140" x2="432" y2="140" stroke="white" stroke-width="8" stroke-dasharray="28 16" opacity="0.35"/>

  <!-- Three stack boxes (warehouse icon) -->
  <!-- Box 1 -->
  <rect x="110" y="238" width="68" height="50" rx="8" fill="#2563EB" opacity="0.18"/>
  <rect x="113" y="241" width="62" height="44" rx="6" fill="white" opacity="0.90"/>
  <!-- Box 2 -->
  <rect x="190" y="238" width="68" height="50" rx="8" fill="#2563EB" opacity="0.18"/>
  <rect x="193" y="241" width="62" height="44" rx="6" fill="white" opacity="0.90"/>
  <!-- Box 3 -->
  <rect x="150" y="180" width="68" height="50" rx="8" fill="#2563EB" opacity="0.18"/>
  <rect x="153" y="183" width="62" height="44" rx="6" fill="white" opacity="0.90"/>

  <!-- "F" lettermark on lead box -->
  <text x="214" y="273" font-family="system-ui, sans-serif" font-weight="800"
        font-size="26" fill="#1E3A8A" text-anchor="middle" dominant-baseline="central">F</text>
  <text x="174" y="213" font-family="system-ui, sans-serif" font-weight="800"
        font-size="26" fill="#1E3A8A" text-anchor="middle" dominant-baseline="central">D</text>
</svg>